<svg width="581" height="143" viewBox="0 0 581 143" fill="none" xmlns="http://www.w3.org/2000/svg">
<path d="M162.484 20.28L158.836 73.56C158.772 74.52 158.42 75 157.78 75H152.5C148.916 75 146.356 74.296 144.82 72.888C143.284 71.48 142.516 69.464 142.516 66.84C142.516 65.88 142.548 64.44 142.612 62.52C142.74 60.6 142.9 58.36 143.092 55.8C143.284 53.176 143.476 50.36 143.668 47.352C143.924 44.28 144.18 41.208 144.436 38.136C144.692 35 144.916 31.896 145.108 28.824C145.364 25.752 145.588 22.904 145.78 20.28H130.42C129.716 20.28 129.364 19.832 129.364 18.936L129.652 13.56C129.716 12.728 129.844 11.928 130.036 11.16C130.292 10.328 130.676 9.592 131.188 8.952C131.7 8.312 132.34 7.8 133.108 7.41599C133.94 7.032 134.932 6.84 136.084 6.84H178.996C179.38 6.84 179.732 6.936 180.052 7.128C180.372 7.32 180.532 7.672 180.532 8.184L180.148 13.848C180.02 15.768 179.476 17.336 178.516 18.552C177.62 19.704 175.732 20.28 172.852 20.28H162.484ZM198.706 75.96C194.29 75.96 190.61 75.352 187.666 74.136C184.786 72.856 182.482 71.128 180.754 68.952C179.026 66.776 177.81 64.248 177.106 61.368C176.402 58.424 176.05 55.288 176.05 51.96C176.05 48.12 176.498 44.376 177.394 40.728C178.354 37.016 179.954 33.72 182.194 30.84C184.434 27.96 187.378 25.656 191.026 23.928C194.738 22.136 199.346 21.24 204.85 21.24C212.914 21.24 218.674 23.224 222.13 27.192C225.65 31.096 227.41 36.6 227.41 43.704C227.41 45.688 227.25 47.896 226.93 50.328C226.674 52.696 226.13 55.064 225.298 57.432C224.53 59.8 223.442 62.104 222.034 64.344C220.69 66.584 218.962 68.568 216.85 70.296C214.738 72.024 212.178 73.4 209.17 74.424C206.226 75.448 202.738 75.96 198.706 75.96ZM203.218 34.008C200.786 34.008 198.834 34.648 197.362 35.928C195.954 37.144 194.866 38.648 194.098 40.44C193.394 42.168 192.914 44.024 192.658 46.008C192.466 47.928 192.37 49.56 192.37 50.904C192.37 55.128 193.042 58.232 194.386 60.216C195.73 62.2 197.65 63.192 200.146 63.192C202.386 63.192 204.21 62.488 205.618 61.08C207.09 59.672 208.21 57.976 208.978 55.992C209.81 54.008 210.354 51.928 210.61 49.752C210.93 47.576 211.09 45.752 211.09 44.28C211.09 41.08 210.482 38.584 209.266 36.792C208.114 34.936 206.098 34.008 203.218 34.008ZM267.313 66.552C267.313 65.144 267.409 63.32 267.601 61.08C267.857 58.776 268.081 56.376 268.273 53.88C268.529 51.32 268.753 48.856 268.945 46.488C269.201 44.12 269.329 42.136 269.329 40.536C269.329 38.872 268.913 37.4 268.081 36.12C267.313 34.776 265.777 34.104 263.473 34.104C261.233 34.104 259.377 34.648 257.905 35.736C256.433 36.824 255.185 38.808 254.161 41.688C253.201 44.568 252.401 48.536 251.761 53.592C251.121 58.648 250.513 65.144 249.937 73.08C249.873 73.848 249.713 74.36 249.457 74.616C249.201 74.872 248.657 75 247.825 75H244.369C242.385 75 240.753 74.808 239.473 74.424C238.257 73.976 237.265 73.368 236.497 72.6C235.793 71.832 235.281 70.904 234.961 69.816C234.705 68.664 234.577 67.352 234.577 65.88C234.577 64.92 234.609 63.576 234.673 61.848C234.801 60.056 234.993 57.624 235.249 54.552C235.505 51.416 235.793 47.48 236.113 42.744C236.497 37.944 236.945 32.024 237.457 24.984C237.521 23.576 237.681 22.744 237.937 22.488C238.129 22.296 238.641 22.2 239.473 22.2H243.217C245.137 22.2 246.705 22.424 247.921 22.872C249.201 23.32 250.225 23.928 250.993 24.696C251.761 25.4 252.305 26.264 252.625 27.288C252.945 28.248 253.137 29.24 253.201 30.264C255.185 26.872 257.457 24.536 260.017 23.256C262.577 21.912 265.777 21.24 269.617 21.24C272.305 21.24 274.641 21.528 276.625 22.104C278.609 22.68 280.241 23.672 281.521 25.08C282.865 26.424 283.857 28.216 284.497 30.456C285.137 32.632 285.457 35.352 285.457 38.616C285.457 39.64 285.393 41.112 285.265 43.032C285.137 44.952 284.977 47.064 284.785 49.368C284.593 51.608 284.369 53.976 284.113 56.472C283.921 58.904 283.729 61.176 283.537 63.288C283.345 65.4 283.185 67.256 283.057 68.856C282.929 70.456 282.865 71.512 282.865 72.024C282.865 73.432 282.705 74.296 282.385 74.616C282.065 74.872 281.361 75 280.273 75H277.201C275.153 75 273.489 74.808 272.209 74.424C270.929 74.04 269.937 73.496 269.233 72.792C268.529 72.088 268.017 71.224 267.697 70.2C267.441 69.112 267.313 67.896 267.313 66.552ZM303.902 75C301.918 75 300.286 74.808 299.006 74.424C297.79 73.976 296.798 73.368 296.03 72.6C295.326 71.832 294.814 70.904 294.494 69.816C294.238 68.664 294.11 67.352 294.11 65.88C294.11 64.92 294.142 63.576 294.206 61.848C294.334 60.056 294.526 57.624 294.782 54.552C295.038 51.416 295.326 47.48 295.646 42.744C296.03 37.944 296.478 32.024 296.99 24.984C297.054 23.576 297.214 22.744 297.47 22.488C297.662 22.296 298.174 22.2 299.006 22.2H302.75C304.734 22.2 306.334 22.392 307.55 22.776C308.83 23.16 309.822 23.736 310.526 24.504C311.294 25.272 311.806 26.2 312.062 27.288C312.382 28.376 312.542 29.592 312.542 30.936C312.542 31.896 312.478 33.336 312.35 35.256C312.222 37.176 312.03 39.8 311.774 43.128C311.582 46.392 311.294 50.488 310.91 55.416C310.526 60.28 310.046 66.168 309.47 73.08C309.406 73.848 309.246 74.36 308.99 74.616C308.734 74.872 308.19 75 307.358 75H303.902ZM297.086 10.872C297.086 8.312 298.014 6.296 299.87 4.824C301.726 3.352 304.222 2.616 307.358 2.616C310.11 2.616 312.094 3.192 313.31 4.34399C314.59 5.432 315.23 6.904 315.23 8.75999C315.23 11.128 314.334 13.112 312.542 14.712C310.814 16.248 308.254 17.016 304.862 17.016C299.678 17.016 297.086 14.968 297.086 10.872ZM345.206 63.192C347.062 63.192 348.662 62.936 350.006 62.424C351.414 61.912 352.63 61.336 353.654 60.696C354.678 60.056 355.542 59.48 356.246 58.968C356.95 58.456 357.59 58.2 358.166 58.2C359.638 58.2 360.374 59.16 360.374 61.08C360.374 61.528 360.278 62.168 360.086 63C359.894 63.768 359.638 64.6 359.318 65.496C358.998 66.328 358.646 67.128 358.262 67.896C357.942 68.664 357.622 69.24 357.302 69.624C356.982 69.944 356.406 70.456 355.574 71.16C354.806 71.864 353.75 72.568 352.406 73.272C351.062 73.976 349.494 74.584 347.702 75.096C345.91 75.672 343.926 75.96 341.75 75.96C339.318 75.96 336.79 75.608 334.166 74.904C331.606 74.136 329.27 72.856 327.158 71.064C325.046 69.208 323.286 66.744 321.878 63.672C320.534 60.536 319.862 56.632 319.862 51.96C319.862 50.296 319.958 48.408 320.15 46.296C320.406 44.12 320.886 41.912 321.59 39.672C322.294 37.368 323.222 35.128 324.374 32.952C325.59 30.712 327.19 28.728 329.174 27C331.158 25.272 333.526 23.896 336.278 22.872C339.094 21.784 342.422 21.24 346.262 21.24C349.398 21.24 352.086 21.624 354.326 22.392C356.63 23.096 358.518 24.088 359.99 25.368C361.462 26.584 362.55 28.024 363.254 29.688C364.022 31.352 364.406 33.144 364.406 35.064C364.406 38.52 363.318 41.08 361.142 42.744C358.966 44.344 355.894 45.144 351.926 45.144C350.966 45.144 350.294 45.08 349.91 44.952C349.59 44.76 349.43 44.376 349.43 43.8C349.43 42.264 349.398 40.888 349.334 39.672C349.27 38.456 349.078 37.432 348.758 36.6C348.502 35.768 348.086 35.128 347.51 34.68C346.934 34.232 346.102 34.008 345.014 34.008C343.03 34.008 341.43 34.648 340.214 35.928C339.062 37.208 338.166 38.776 337.526 40.632C336.95 42.424 336.566 44.28 336.374 46.2C336.246 48.12 336.182 49.72 336.182 51C336.182 55.544 336.886 58.712 338.294 60.504C339.766 62.296 342.07 63.192 345.206 63.192ZM380.708 75C377.06 75 374.468 74.296 372.932 72.888C371.46 71.416 370.724 69.272 370.724 66.456C370.724 65.624 370.756 64.312 370.82 62.52C370.948 60.664 371.108 58.488 371.3 55.992C371.492 53.496 371.684 50.776 371.876 47.832C372.132 44.888 372.388 41.88 372.644 38.808C372.964 35.032 373.22 31.8 373.412 29.112C373.668 26.36 373.86 24.024 373.988 22.104C374.116 20.12 374.212 18.488 374.276 17.208C374.404 15.864 374.468 14.712 374.468 13.752C374.532 12.728 374.564 11.8 374.564 10.968C374.628 10.136 374.66 9.24 374.66 8.27999C374.66 7.768 374.82 7.416 375.14 7.224C375.46 6.968 375.78 6.84 376.1 6.84C377.764 6.84 379.588 6.808 381.572 6.744C383.556 6.616 385.54 6.488 387.524 6.36C389.508 6.232 391.428 6.136 393.284 6.07199C395.14 5.944 396.772 5.88 398.18 5.88C402.276 5.88 405.796 6.392 408.74 7.41599C411.684 8.376 414.052 9.816 415.844 11.736C417.7 13.592 419.044 15.864 419.876 18.552C420.772 21.24 421.22 24.312 421.22 27.768C421.22 31.544 420.708 35.192 419.684 38.712C418.724 42.168 417.188 45.24 415.076 47.928C412.964 50.616 410.244 52.76 406.916 54.36C403.588 55.96 399.62 56.76 395.012 56.76C392.26 56.76 389.924 56.472 388.004 55.896L386.66 73.56C386.596 74.072 386.468 74.456 386.276 74.712C386.084 74.904 385.7 75 385.124 75H380.708ZM396.26 20.28C395.428 20.28 394.5 20.344 393.476 20.472C392.452 20.536 391.364 20.632 390.212 20.76C390.084 23.448 389.924 26.712 389.732 30.552C389.54 34.392 389.284 38.424 388.964 42.648C389.924 42.904 390.852 43.096 391.748 43.224C392.708 43.288 393.572 43.32 394.34 43.32C396.58 43.32 398.372 42.808 399.716 41.784C401.124 40.696 402.212 39.384 402.98 37.848C403.748 36.312 404.26 34.712 404.516 33.048C404.772 31.384 404.9 29.944 404.9 28.728C404.9 25.976 404.26 23.896 402.98 22.488C401.764 21.016 399.524 20.28 396.26 20.28ZM447.706 75.96C443.29 75.96 439.61 75.352 436.666 74.136C433.786 72.856 431.482 71.128 429.754 68.952C428.026 66.776 426.81 64.248 426.106 61.368C425.402 58.424 425.05 55.288 425.05 51.96C425.05 48.12 425.498 44.376 426.394 40.728C427.354 37.016 428.954 33.72 431.194 30.84C433.434 27.96 436.378 25.656 440.026 23.928C443.738 22.136 448.346 21.24 453.85 21.24C461.914 21.24 467.674 23.224 471.13 27.192C474.65 31.096 476.41 36.6 476.41 43.704C476.41 45.688 476.25 47.896 475.93 50.328C475.674 52.696 475.13 55.064 474.298 57.432C473.53 59.8 472.442 62.104 471.034 64.344C469.69 66.584 467.962 68.568 465.85 70.296C463.738 72.024 461.178 73.4 458.17 74.424C455.226 75.448 451.738 75.96 447.706 75.96ZM452.218 34.008C449.786 34.008 447.834 34.648 446.362 35.928C444.954 37.144 443.866 38.648 443.098 40.44C442.394 42.168 441.914 44.024 441.658 46.008C441.466 47.928 441.37 49.56 441.37 50.904C441.37 55.128 442.042 58.232 443.386 60.216C444.73 62.2 446.65 63.192 449.146 63.192C451.386 63.192 453.21 62.488 454.618 61.08C456.09 59.672 457.21 57.976 457.978 55.992C458.81 54.008 459.354 51.928 459.61 49.752C459.93 47.576 460.09 45.752 460.09 44.28C460.09 41.08 459.482 38.584 458.266 36.792C457.114 34.936 455.098 34.008 452.218 34.008ZM534.376 64.728C535.208 60.056 535.912 55.992 536.488 52.536C537.128 49.016 537.64 45.976 538.024 43.416C538.472 40.856 538.824 38.648 539.08 36.792C539.4 34.936 539.656 33.304 539.848 31.896C540.104 30.424 540.296 29.144 540.424 28.056C540.616 26.904 540.808 25.72 541 24.504C541.128 23.8 541.448 23.256 541.96 22.872C542.536 22.488 543.592 22.296 545.128 22.296C545.96 22.296 547.112 22.36 548.584 22.488C550.12 22.552 551.624 22.776 553.096 23.16C554.568 23.544 555.816 24.152 556.84 24.984C557.928 25.752 558.472 26.84 558.472 28.248C558.472 29.272 558.184 30.808 557.608 32.856C557.032 34.84 556.296 37.144 555.4 39.768C554.504 42.392 553.48 45.208 552.328 48.216C551.176 51.16 549.992 54.104 548.776 57.048C547.624 59.928 546.504 62.68 545.416 65.304C544.328 67.928 543.4 70.2 542.632 72.12C542.12 73.272 541.608 74.04 541.096 74.424C540.648 74.808 539.816 75 538.6 75H532.936C531.144 75 529.672 74.776 528.52 74.328C527.368 73.88 526.44 73.272 525.736 72.504C525.032 71.736 524.488 70.872 524.104 69.912C523.72 68.888 523.432 67.8 523.24 66.648C522.6 63.384 521.928 59 521.224 53.496C520.52 47.992 519.88 41.496 519.304 34.008C518.984 35.416 518.6 37.304 518.152 39.672C517.768 42.04 517.32 44.6 516.808 47.352C516.36 50.104 515.88 52.92 515.368 55.8C514.856 58.68 514.376 61.368 513.928 63.864C513.48 66.296 513.064 68.408 512.68 70.2C512.296 71.928 511.976 73.048 511.72 73.56C511.4 74.2 510.984 74.616 510.472 74.808C510.024 74.936 509.352 75 508.456 75H501.736C500.072 75 498.632 74.776 497.416 74.328C496.264 73.816 495.24 73.176 494.344 72.408C493.512 71.64 492.808 70.776 492.232 69.816C491.72 68.792 491.336 67.736 491.08 66.648C487.56 52.952 484.904 42.616 483.112 35.64C481.384 28.664 480.52 24.92 480.52 24.408C480.52 23.832 480.808 23.32 481.384 22.872C481.96 22.424 482.696 22.2 483.592 22.2C486.344 22.2 488.712 22.328 490.696 22.584C492.68 22.776 494.312 23.16 495.592 23.736C496.936 24.312 497.96 25.112 498.664 26.136C499.368 27.16 499.816 28.504 500.008 30.168C500.072 31.064 500.2 32.888 500.392 35.64C500.584 38.392 500.776 41.528 500.968 45.048C501.224 48.504 501.448 52.024 501.64 55.608C501.896 59.192 502.12 62.232 502.312 64.728C503.08 60.76 503.688 57.592 504.136 55.224C504.648 52.856 505.064 50.872 505.384 49.272C505.704 47.672 505.96 46.264 506.152 45.048C506.408 43.832 506.696 42.392 507.016 40.728C507.336 39.064 507.688 36.984 508.072 34.488C508.52 31.992 509.128 28.664 509.896 24.504C510.152 22.968 511.848 22.2 514.984 22.2C516.968 22.2 518.824 22.264 520.552 22.392C522.28 22.52 523.816 22.84 525.16 23.352C526.504 23.8 527.656 24.504 528.616 25.464C529.576 26.36 530.248 27.608 530.632 29.208C530.76 29.656 530.856 30.104 530.92 30.552C531.048 31 531.176 31.64 531.304 32.472C531.432 33.304 531.56 34.456 531.688 35.928C531.88 37.4 532.072 39.384 532.264 41.88C532.52 44.376 532.808 47.48 533.128 51.192C533.448 54.904 533.864 59.416 534.376 64.728Z" fill="#FF5758"/>
<path d="M148.031 120C146.687 120 145.727 119.736 145.151 119.208C144.575 118.68 144.287 117.924 144.287 116.94C144.287 116.46 144.323 115.644 144.395 114.492C144.467 113.316 144.563 111.984 144.683 110.496C144.803 109.008 144.923 107.436 145.043 105.78C145.163 104.124 145.283 102.564 145.403 101.1C145.523 99.636 145.619 98.352 145.691 97.248C145.763 96.144 145.799 95.388 145.799 94.98C145.799 94.62 145.991 94.44 146.375 94.44H159.047C159.191 94.44 159.323 94.476 159.443 94.548C159.563 94.62 159.623 94.752 159.623 94.944L159.479 97.068C159.431 97.788 159.227 98.376 158.867 98.832C158.531 99.264 157.823 99.48 156.743 99.48H151.775L151.415 104.556H156.527C156.671 104.556 156.803 104.592 156.923 104.664C157.043 104.736 157.103 104.868 157.103 105.06L156.959 107.184C156.911 107.904 156.707 108.492 156.347 108.948C156.011 109.38 155.303 109.596 154.223 109.596H151.091L150.695 114.96H158.615C158.759 114.96 158.891 115.008 159.011 115.104C159.131 115.176 159.191 115.296 159.191 115.464L159.047 117.588C158.999 118.308 158.795 118.896 158.435 119.352C158.099 119.784 157.391 120 156.311 120H148.031ZM160.882 115.572C160.882 113.412 161.854 111.72 163.798 110.496C165.742 109.272 168.61 108.612 172.402 108.516C172.426 108.252 172.438 108.036 172.438 107.868C172.462 107.676 172.474 107.448 172.474 107.184C172.474 106.416 172.33 105.804 172.042 105.348C171.754 104.892 171.154 104.664 170.242 104.664C169.738 104.664 169.33 104.736 169.018 104.88C168.706 105.024 168.454 105.228 168.262 105.492C168.07 105.732 167.914 106.032 167.794 106.392C167.674 106.752 167.566 107.148 167.47 107.58C167.422 107.796 167.314 107.94 167.146 108.012C166.978 108.06 166.714 108.084 166.354 108.084C163.906 108.084 162.682 107.16 162.682 105.312C162.682 104.568 162.85 103.86 163.186 103.188C163.546 102.516 164.062 101.94 164.734 101.46C165.43 100.956 166.294 100.56 167.326 100.272C168.358 99.984 169.558 99.84 170.926 99.84C173.59 99.84 175.522 100.392 176.722 101.496C177.922 102.6 178.522 104.16 178.522 106.176C178.522 106.44 178.486 106.92 178.414 107.616C178.366 108.288 178.294 109.008 178.198 109.776C178.126 110.52 178.054 111.228 177.982 111.9C177.934 112.572 177.91 113.04 177.91 113.304C177.91 113.904 178.018 114.336 178.234 114.6C178.45 114.84 178.69 115.008 178.954 115.104C179.242 115.2 179.494 115.272 179.71 115.32C179.926 115.368 180.034 115.488 180.034 115.68C180.034 116.208 179.962 116.748 179.818 117.3C179.674 117.852 179.434 118.356 179.098 118.812C178.786 119.268 178.342 119.64 177.766 119.928C177.214 120.216 176.53 120.36 175.714 120.36C174.562 120.36 173.698 120.084 173.122 119.532C172.546 118.98 172.162 118.212 171.97 117.228C171.394 118.068 170.638 118.8 169.702 119.424C168.79 120.048 167.59 120.36 166.102 120.36C165.382 120.36 164.698 120.276 164.05 120.108C163.426 119.94 162.874 119.664 162.394 119.28C161.938 118.896 161.566 118.404 161.278 117.804C161.014 117.18 160.882 116.436 160.882 115.572ZM172.078 111.468C171.454 111.468 170.842 111.516 170.242 111.612C169.642 111.708 169.102 111.864 168.622 112.08C168.166 112.272 167.794 112.536 167.506 112.872C167.218 113.208 167.074 113.616 167.074 114.096C167.074 114.648 167.242 115.032 167.578 115.248C167.938 115.464 168.322 115.572 168.73 115.572C169.114 115.572 169.498 115.488 169.882 115.32C170.266 115.152 170.602 114.9 170.89 114.564C171.202 114.204 171.466 113.772 171.682 113.268C171.898 112.764 172.03 112.164 172.078 111.468ZM193.875 108.804C193.731 108.804 193.563 108.804 193.371 108.804C193.203 108.78 193.035 108.756 192.867 108.732C192.699 108.684 192.555 108.636 192.435 108.588C192.315 108.516 192.255 108.432 192.255 108.336C192.255 108.024 192.267 107.736 192.291 107.472C192.315 107.208 192.327 106.932 192.327 106.644C192.327 106.116 192.255 105.684 192.111 105.348C191.967 105.012 191.679 104.844 191.247 104.844C190.575 104.844 190.011 105.288 189.555 106.176C189.123 107.04 188.847 108.348 188.727 110.1C188.679 110.868 188.607 111.744 188.511 112.728C188.439 113.688 188.367 114.624 188.295 115.536C188.223 116.424 188.163 117.216 188.115 117.912C188.067 118.608 188.043 119.064 188.043 119.28C188.043 119.52 187.959 119.7 187.791 119.82C187.623 119.94 187.443 120 187.251 120H185.955C185.211 120 184.599 119.928 184.119 119.784C183.663 119.616 183.291 119.388 183.003 119.1C182.739 118.812 182.547 118.464 182.427 118.056C182.331 117.624 182.283 117.132 182.283 116.58C182.283 116.22 182.295 115.716 182.319 115.068C182.367 114.396 182.439 113.484 182.535 112.332C182.631 111.156 182.739 109.68 182.859 107.904C183.003 106.104 183.171 103.884 183.363 101.244C183.411 100.548 183.663 100.2 184.119 100.2H185.523C186.195 100.2 186.759 100.272 187.215 100.416C187.671 100.56 188.043 100.764 188.331 101.028C188.619 101.268 188.823 101.556 188.943 101.892C189.087 102.228 189.183 102.576 189.231 102.936C189.519 102.384 189.855 101.916 190.239 101.532C190.647 101.124 191.067 100.8 191.499 100.56C191.931 100.296 192.375 100.116 192.831 100.02C193.287 99.9 193.707 99.84 194.091 99.84C194.547 99.84 195.003 99.924 195.459 100.092C195.939 100.26 196.371 100.512 196.755 100.848C197.139 101.184 197.439 101.616 197.655 102.144C197.895 102.672 198.015 103.296 198.015 104.016C198.015 104.664 197.919 105.276 197.727 105.852C197.535 106.428 197.259 106.944 196.899 107.4C196.539 107.832 196.095 108.18 195.567 108.444C195.063 108.684 194.499 108.804 193.875 108.804ZM211.75 116.832C211.75 116.304 211.786 115.62 211.858 114.78C211.954 113.916 212.038 113.016 212.11 112.08C212.206 111.12 212.29 110.196 212.362 109.308C212.458 108.42 212.506 107.676 212.506 107.076C212.506 106.452 212.35 105.9 212.038 105.42C211.75 104.916 211.174 104.664 210.31 104.664C209.47 104.664 208.774 104.868 208.222 105.276C207.67 105.684 207.202 106.428 206.818 107.508C206.458 108.588 206.158 110.076 205.918 111.972C205.678 113.868 205.45 116.304 205.234 119.28C205.21 119.568 205.15 119.76 205.054 119.856C204.958 119.952 204.754 120 204.442 120H203.146C202.402 120 201.79 119.928 201.31 119.784C200.854 119.616 200.482 119.388 200.194 119.1C199.93 118.812 199.738 118.464 199.618 118.056C199.522 117.624 199.474 117.132 199.474 116.58C199.474 116.22 199.486 115.716 199.51 115.068C199.558 114.396 199.63 113.484 199.726 112.332C199.822 111.156 199.93 109.68 200.05 107.904C200.194 106.104 200.362 103.884 200.554 101.244C200.578 100.716 200.638 100.404 200.734 100.308C200.806 100.236 200.998 100.2 201.31 100.2H202.714C203.434 100.2 204.022 100.284 204.478 100.452C204.958 100.62 205.342 100.848 205.63 101.136C205.918 101.4 206.122 101.724 206.242 102.108C206.362 102.468 206.434 102.84 206.458 103.224C207.202 101.952 208.054 101.076 209.014 100.596C209.974 100.092 211.174 99.84 212.614 99.84C213.622 99.84 214.498 99.948 215.242 100.164C215.986 100.38 216.598 100.752 217.078 101.28C217.582 101.784 217.954 102.456 218.194 103.296C218.434 104.112 218.554 105.132 218.554 106.356C218.554 106.74 218.53 107.292 218.482 108.012C218.434 108.732 218.374 109.524 218.302 110.388C218.23 111.228 218.146 112.116 218.05 113.052C217.978 113.964 217.906 114.816 217.834 115.608C217.762 116.4 217.702 117.096 217.654 117.696C217.606 118.296 217.582 118.692 217.582 118.884C217.582 119.412 217.522 119.736 217.402 119.856C217.282 119.952 217.018 120 216.61 120H215.458C214.69 120 214.066 119.928 213.586 119.784C213.106 119.64 212.734 119.436 212.47 119.172C212.206 118.908 212.014 118.584 211.894 118.2C211.798 117.792 211.75 117.336 211.75 116.832ZM224.607 113.592C225.615 113.592 226.335 113.844 226.767 114.348C227.199 114.828 227.415 115.512 227.415 116.4C227.415 116.76 227.367 117.18 227.271 117.66C227.175 118.116 226.995 118.548 226.731 118.956C226.491 119.34 226.143 119.676 225.687 119.964C225.231 120.228 224.631 120.36 223.887 120.36C222.783 120.36 222.039 120.084 221.655 119.532C221.271 118.956 221.079 118.248 221.079 117.408C221.079 116.928 221.139 116.46 221.259 116.004C221.379 115.548 221.571 115.14 221.835 114.78C222.099 114.42 222.459 114.132 222.915 113.916C223.371 113.7 223.935 113.592 224.607 113.592ZM242.637 120C241.269 120 240.297 119.736 239.721 119.208C239.169 118.656 238.893 117.852 238.893 116.796C238.893 116.484 238.905 115.992 238.929 115.32C238.977 114.624 239.037 113.808 239.109 112.872C239.181 111.936 239.253 110.916 239.325 109.812C239.421 108.708 239.517 107.58 239.613 106.428C239.733 105.012 239.829 103.8 239.901 102.792C239.997 101.76 240.069 100.884 240.117 100.164C240.165 99.42 240.201 98.808 240.225 98.328C240.273 97.824 240.297 97.392 240.297 97.032C240.321 96.648 240.333 96.3 240.333 95.988C240.357 95.676 240.369 95.34 240.369 94.98C240.369 94.788 240.429 94.656 240.549 94.584C240.669 94.488 240.789 94.44 240.909 94.44C241.533 94.44 242.217 94.428 242.961 94.404C243.705 94.356 244.449 94.308 245.193 94.26C245.937 94.212 246.657 94.176 247.353 94.152C248.049 94.104 248.661 94.08 249.189 94.08C250.725 94.08 252.045 94.272 253.149 94.656C254.253 95.016 255.141 95.556 255.813 96.276C256.509 96.972 257.013 97.824 257.325 98.832C257.661 99.84 257.829 100.992 257.829 102.288C257.829 103.704 257.637 105.072 257.253 106.392C256.893 107.688 256.317 108.84 255.525 109.848C254.733 110.856 253.713 111.66 252.465 112.26C251.217 112.86 249.729 113.16 248.001 113.16C246.969 113.16 246.093 113.052 245.373 112.836L244.869 119.46C244.845 119.652 244.797 119.796 244.725 119.892C244.653 119.964 244.509 120 244.293 120H242.637ZM248.469 99.48C248.157 99.48 247.809 99.504 247.425 99.552C247.041 99.576 246.633 99.612 246.201 99.66C246.153 100.668 246.093 101.892 246.021 103.332C245.949 104.772 245.853 106.284 245.733 107.868C246.093 107.964 246.441 108.036 246.777 108.084C247.137 108.108 247.461 108.12 247.749 108.12C248.589 108.12 249.261 107.928 249.765 107.544C250.293 107.136 250.701 106.644 250.989 106.068C251.277 105.492 251.469 104.892 251.565 104.268C251.661 103.644 251.709 103.104 251.709 102.648C251.709 101.616 251.469 100.836 250.989 100.308C250.533 99.756 249.693 99.48 248.469 99.48ZM271.325 108.804C271.181 108.804 271.013 108.804 270.821 108.804C270.653 108.78 270.485 108.756 270.317 108.732C270.149 108.684 270.005 108.636 269.885 108.588C269.765 108.516 269.705 108.432 269.705 108.336C269.705 108.024 269.717 107.736 269.741 107.472C269.765 107.208 269.777 106.932 269.777 106.644C269.777 106.116 269.705 105.684 269.561 105.348C269.417 105.012 269.129 104.844 268.697 104.844C268.025 104.844 267.461 105.288 267.005 106.176C266.573 107.04 266.297 108.348 266.177 110.1C266.129 110.868 266.057 111.744 265.961 112.728C265.889 113.688 265.817 114.624 265.745 115.536C265.673 116.424 265.613 117.216 265.565 117.912C265.517 118.608 265.493 119.064 265.493 119.28C265.493 119.52 265.409 119.7 265.241 119.82C265.073 119.94 264.893 120 264.701 120H263.405C262.661 120 262.049 119.928 261.569 119.784C261.113 119.616 260.741 119.388 260.453 119.1C260.189 118.812 259.997 118.464 259.877 118.056C259.781 117.624 259.733 117.132 259.733 116.58C259.733 116.22 259.745 115.716 259.769 115.068C259.817 114.396 259.889 113.484 259.985 112.332C260.081 111.156 260.189 109.68 260.309 107.904C260.453 106.104 260.621 103.884 260.813 101.244C260.861 100.548 261.113 100.2 261.569 100.2H262.973C263.645 100.2 264.209 100.272 264.665 100.416C265.121 100.56 265.493 100.764 265.781 101.028C266.069 101.268 266.273 101.556 266.393 101.892C266.537 102.228 266.633 102.576 266.681 102.936C266.969 102.384 267.305 101.916 267.689 101.532C268.097 101.124 268.517 100.8 268.949 100.56C269.381 100.296 269.825 100.116 270.281 100.02C270.737 99.9 271.157 99.84 271.541 99.84C271.997 99.84 272.453 99.924 272.909 100.092C273.389 100.26 273.821 100.512 274.205 100.848C274.589 101.184 274.889 101.616 275.105 102.144C275.345 102.672 275.465 103.296 275.465 104.016C275.465 104.664 275.369 105.276 275.177 105.852C274.985 106.428 274.709 106.944 274.349 107.4C273.989 107.832 273.545 108.18 273.017 108.444C272.513 108.684 271.949 108.804 271.325 108.804ZM284.987 120.36C283.331 120.36 281.951 120.132 280.847 119.676C279.767 119.196 278.903 118.548 278.255 117.732C277.607 116.916 277.151 115.968 276.887 114.888C276.623 113.784 276.491 112.608 276.491 111.36C276.491 109.92 276.659 108.516 276.995 107.148C277.355 105.756 277.955 104.52 278.795 103.44C279.635 102.36 280.739 101.496 282.107 100.848C283.499 100.176 285.227 99.84 287.291 99.84C290.315 99.84 292.475 100.584 293.771 102.072C295.091 103.536 295.751 105.6 295.751 108.264C295.751 109.008 295.691 109.836 295.571 110.748C295.475 111.636 295.271 112.524 294.959 113.412C294.671 114.3 294.263 115.164 293.735 116.004C293.231 116.844 292.583 117.588 291.791 118.236C290.999 118.884 290.039 119.4 288.911 119.784C287.807 120.168 286.499 120.36 284.987 120.36ZM286.679 104.628C285.767 104.628 285.035 104.868 284.483 105.348C283.955 105.804 283.547 106.368 283.259 107.04C282.995 107.688 282.815 108.384 282.719 109.128C282.647 109.848 282.611 110.46 282.611 110.964C282.611 112.548 282.863 113.712 283.367 114.456C283.871 115.2 284.591 115.572 285.527 115.572C286.367 115.572 287.051 115.308 287.579 114.78C288.131 114.252 288.551 113.616 288.839 112.872C289.151 112.128 289.355 111.348 289.451 110.532C289.571 109.716 289.631 109.032 289.631 108.48C289.631 107.28 289.403 106.344 288.947 105.672C288.515 104.976 287.759 104.628 286.679 104.628ZM304.667 113.52C304.595 114.624 304.511 115.68 304.415 116.688C304.319 117.672 304.247 118.536 304.199 119.28C304.175 119.568 304.115 119.76 304.019 119.856C303.923 119.952 303.719 120 303.407 120H302.111C301.367 120 300.755 119.928 300.275 119.784C299.819 119.616 299.447 119.388 299.159 119.1C298.895 118.812 298.703 118.464 298.583 118.056C298.487 117.624 298.439 117.132 298.439 116.58C298.439 116.22 298.451 115.716 298.475 115.068C298.523 114.396 298.595 113.484 298.691 112.332C298.787 111.156 298.895 109.68 299.015 107.904C299.159 106.104 299.327 103.884 299.519 101.244C299.543 100.716 299.603 100.404 299.699 100.308C299.771 100.236 299.963 100.2 300.275 100.2H301.679C302.399 100.2 302.987 100.284 303.443 100.452C303.899 100.62 304.271 100.836 304.559 101.1C304.847 101.364 305.051 101.676 305.171 102.036C305.291 102.396 305.363 102.768 305.387 103.152C306.083 101.856 306.875 100.98 307.763 100.524C308.651 100.068 309.695 99.84 310.895 99.84C311.543 99.84 312.167 99.9 312.767 100.02C313.367 100.14 313.907 100.344 314.387 100.632C314.867 100.92 315.275 101.304 315.611 101.784C315.947 102.24 316.187 102.828 316.331 103.548C317.075 102.156 317.891 101.196 318.779 100.668C319.667 100.116 320.783 99.84 322.127 99.84C322.871 99.84 323.579 99.924 324.251 100.092C324.947 100.236 325.547 100.5 326.051 100.884C326.555 101.268 326.951 101.796 327.239 102.468C327.551 103.116 327.707 103.932 327.707 104.916C327.707 105.66 327.671 106.572 327.599 107.652C327.527 108.732 327.443 109.908 327.347 111.18C327.251 112.428 327.143 113.724 327.023 115.068C326.903 116.388 326.807 117.66 326.735 118.884C326.711 119.148 326.687 119.352 326.663 119.496C326.639 119.64 326.591 119.748 326.519 119.82C326.471 119.892 326.387 119.94 326.267 119.964C326.147 119.988 325.979 120 325.763 120H324.611C323.843 120 323.219 119.928 322.739 119.784C322.259 119.64 321.887 119.436 321.623 119.172C321.359 118.908 321.167 118.584 321.047 118.2C320.951 117.792 320.903 117.336 320.903 116.832C320.903 116.52 320.915 116.076 320.939 115.5C320.987 114.924 321.035 114.3 321.083 113.628C321.155 112.956 321.215 112.26 321.263 111.54C321.335 110.82 321.395 110.16 321.443 109.56C321.515 108.936 321.563 108.396 321.587 107.94C321.635 107.484 321.659 107.184 321.659 107.04C321.659 106.416 321.527 105.864 321.263 105.384C321.023 104.904 320.543 104.664 319.823 104.664C319.199 104.664 318.659 104.868 318.203 105.276C317.747 105.684 317.363 106.248 317.051 106.968C316.739 107.688 316.487 108.54 316.295 109.524C316.103 110.508 315.971 111.576 315.899 112.728C315.851 113.472 315.791 114.324 315.719 115.284C315.647 116.244 315.563 117.444 315.467 118.884C315.443 119.148 315.419 119.352 315.395 119.496C315.371 119.64 315.323 119.748 315.251 119.82C315.203 119.892 315.119 119.94 314.999 119.964C314.879 119.988 314.711 120 314.495 120H313.343C312.575 120 311.951 119.928 311.471 119.784C310.991 119.64 310.619 119.436 310.355 119.172C310.091 118.908 309.899 118.584 309.779 118.2C309.683 117.792 309.635 117.336 309.635 116.832C309.635 116.352 309.671 115.656 309.743 114.744C309.839 113.808 309.923 112.848 309.995 111.864C310.091 110.856 310.175 109.908 310.247 109.02C310.343 108.108 310.391 107.448 310.391 107.04C310.391 106.416 310.259 105.864 309.995 105.384C309.755 104.904 309.275 104.664 308.555 104.664C307.907 104.664 307.355 104.904 306.899 105.384C306.443 105.864 306.059 106.512 305.747 107.328C305.459 108.12 305.219 109.056 305.027 110.136C304.859 111.216 304.739 112.344 304.667 113.52ZM338.987 120.36C337.331 120.36 335.951 120.132 334.847 119.676C333.767 119.196 332.903 118.548 332.255 117.732C331.607 116.916 331.151 115.968 330.887 114.888C330.623 113.784 330.491 112.608 330.491 111.36C330.491 109.92 330.659 108.516 330.995 107.148C331.355 105.756 331.955 104.52 332.795 103.44C333.635 102.36 334.739 101.496 336.107 100.848C337.499 100.176 339.227 99.84 341.291 99.84C344.315 99.84 346.475 100.584 347.771 102.072C349.091 103.536 349.751 105.6 349.751 108.264C349.751 109.008 349.691 109.836 349.571 110.748C349.475 111.636 349.271 112.524 348.959 113.412C348.671 114.3 348.263 115.164 347.735 116.004C347.231 116.844 346.583 117.588 345.791 118.236C344.999 118.884 344.039 119.4 342.911 119.784C341.807 120.168 340.499 120.36 338.987 120.36ZM340.679 104.628C339.767 104.628 339.035 104.868 338.483 105.348C337.955 105.804 337.547 106.368 337.259 107.04C336.995 107.688 336.815 108.384 336.719 109.128C336.647 109.848 336.611 110.46 336.611 110.964C336.611 112.548 336.863 113.712 337.367 114.456C337.871 115.2 338.591 115.572 339.527 115.572C340.367 115.572 341.051 115.308 341.579 114.78C342.131 114.252 342.551 113.616 342.839 112.872C343.151 112.128 343.355 111.348 343.451 110.532C343.571 109.716 343.631 109.032 343.631 108.48C343.631 107.28 343.403 106.344 342.947 105.672C342.515 104.976 341.759 104.628 340.679 104.628ZM360.179 105.06C360.107 105.972 360.023 106.872 359.927 107.76C359.855 108.648 359.783 109.488 359.711 110.28C359.639 111.072 359.579 111.78 359.531 112.404C359.507 113.028 359.495 113.508 359.495 113.844C359.495 114.468 359.567 114.888 359.711 115.104C359.855 115.296 360.095 115.392 360.431 115.392C360.695 115.392 360.923 115.344 361.115 115.248C361.307 115.152 361.487 115.044 361.655 114.924C361.823 114.804 361.967 114.696 362.087 114.6C362.231 114.504 362.387 114.456 362.555 114.456C362.723 114.456 362.879 114.552 363.023 114.744C363.167 114.936 363.239 115.38 363.239 116.076C363.239 117.396 362.879 118.44 362.159 119.208C361.439 119.976 360.203 120.36 358.451 120.36C356.723 120.36 355.439 119.964 354.599 119.172C353.783 118.356 353.375 117.12 353.375 115.464C353.375 115.104 353.387 114.684 353.411 114.204C353.459 113.7 353.519 113.052 353.591 112.26C353.663 111.468 353.747 110.496 353.843 109.344C353.963 108.192 354.083 106.764 354.203 105.06H352.295C352.103 105.06 351.983 105.024 351.935 104.952C351.911 104.856 351.899 104.724 351.899 104.556L352.007 102.72C352.031 102.408 352.067 102.108 352.115 101.82C352.187 101.508 352.307 101.232 352.475 100.992C352.667 100.752 352.931 100.56 353.267 100.416C353.603 100.272 354.047 100.2 354.599 100.2C354.767 99.768 354.959 99.252 355.175 98.652C355.391 98.052 355.607 97.476 355.823 96.924C356.039 96.348 356.243 95.868 356.435 95.484C356.651 95.1 356.843 94.908 357.011 94.908H358.055C359.063 94.908 359.759 95.22 360.143 95.844C360.527 96.468 360.719 97.212 360.719 98.076C360.719 98.556 360.683 99.264 360.611 100.2H364.391C364.775 100.2 364.967 100.368 364.967 100.704L364.823 102.648C364.775 103.368 364.571 103.956 364.211 104.412C363.875 104.844 363.167 105.06 362.087 105.06H360.179ZM374.888 120.36C373.832 120.36 372.776 120.228 371.72 119.964C370.688 119.7 369.752 119.244 368.912 118.596C368.096 117.948 367.424 117.084 366.896 116.004C366.368 114.924 366.104 113.568 366.104 111.936C366.104 111.336 366.152 110.616 366.248 109.776C366.344 108.936 366.524 108.072 366.788 107.184C367.076 106.296 367.46 105.42 367.94 104.556C368.444 103.668 369.092 102.876 369.884 102.18C370.676 101.484 371.636 100.92 372.764 100.488C373.892 100.056 375.236 99.84 376.796 99.84C378.044 99.84 379.1 99.984 379.964 100.272C380.828 100.56 381.524 100.956 382.052 101.46C382.58 101.94 382.964 102.504 383.204 103.152C383.444 103.8 383.564 104.496 383.564 105.24C383.564 106.344 383.336 107.28 382.88 108.048C382.448 108.816 381.872 109.464 381.152 109.992C380.456 110.496 379.676 110.892 378.812 111.18C377.948 111.468 377.096 111.696 376.256 111.864C375.416 112.008 374.636 112.104 373.916 112.152C373.22 112.176 372.68 112.188 372.296 112.188C372.296 112.644 372.356 113.1 372.476 113.556C372.62 113.988 372.824 114.372 373.088 114.708C373.352 115.044 373.7 115.32 374.132 115.536C374.564 115.752 375.092 115.86 375.716 115.86C376.34 115.86 376.82 115.764 377.156 115.572C377.516 115.356 377.804 115.128 378.02 114.888C378.236 114.624 378.416 114.396 378.56 114.204C378.728 113.988 378.944 113.88 379.208 113.88C379.328 113.88 379.532 113.916 379.82 113.988C380.132 114.036 380.444 114.156 380.756 114.348C381.068 114.54 381.344 114.804 381.584 115.14C381.824 115.476 381.944 115.908 381.944 116.436C381.944 117.132 381.728 117.732 381.296 118.236C380.864 118.74 380.3 119.148 379.604 119.46C378.932 119.772 378.176 120 377.336 120.144C376.496 120.288 375.68 120.36 374.888 120.36ZM375.572 104.628C375.044 104.628 374.588 104.784 374.204 105.096C373.844 105.384 373.532 105.756 373.268 106.212C373.028 106.668 372.836 107.172 372.692 107.724C372.572 108.276 372.476 108.804 372.404 109.308C373.892 109.284 375.092 109.032 376.004 108.552C376.94 108.072 377.408 107.388 377.408 106.5C377.408 106.02 377.252 105.588 376.94 105.204C376.652 104.82 376.196 104.628 375.572 104.628ZM388.576 113.592C389.584 113.592 390.304 113.844 390.736 114.348C391.168 114.828 391.384 115.512 391.384 116.4C391.384 116.76 391.336 117.18 391.24 117.66C391.144 118.116 390.964 118.548 390.7 118.956C390.46 119.34 390.112 119.676 389.656 119.964C389.2 120.228 388.6 120.36 387.856 120.36C386.752 120.36 386.008 120.084 385.624 119.532C385.24 118.956 385.048 118.248 385.048 117.408C385.048 116.928 385.108 116.46 385.228 116.004C385.348 115.548 385.54 115.14 385.804 114.78C386.068 114.42 386.428 114.132 386.884 113.916C387.34 113.7 387.904 113.592 388.576 113.592ZM406.605 120C405.261 120 404.301 119.736 403.725 119.208C403.149 118.68 402.861 117.924 402.861 116.94C402.861 116.46 402.897 115.644 402.969 114.492C403.041 113.316 403.137 111.984 403.257 110.496C403.377 109.008 403.497 107.436 403.617 105.78C403.737 104.124 403.857 102.564 403.977 101.1C404.097 99.636 404.193 98.352 404.265 97.248C404.337 96.144 404.373 95.388 404.373 94.98C404.373 94.62 404.565 94.44 404.949 94.44H417.621C417.765 94.44 417.897 94.476 418.017 94.548C418.137 94.62 418.197 94.752 418.197 94.944L418.053 97.068C418.005 97.788 417.801 98.376 417.441 98.832C417.105 99.264 416.397 99.48 415.317 99.48H410.349L409.989 104.556H415.101C415.245 104.556 415.377 104.592 415.497 104.664C415.617 104.736 415.677 104.868 415.677 105.06L415.533 107.184C415.485 107.904 415.281 108.492 414.921 108.948C414.585 109.38 413.877 109.596 412.797 109.596H409.665L409.269 114.96H417.189C417.333 114.96 417.465 115.008 417.585 115.104C417.705 115.176 417.765 115.296 417.765 115.464L417.621 117.588C417.573 118.308 417.369 118.896 417.009 119.352C416.673 119.784 415.965 120 414.885 120H406.605ZM430.149 106.716C430.653 106.068 431.145 105.348 431.625 104.556C432.105 103.74 432.549 102.996 432.957 102.324C433.389 101.628 433.773 101.052 434.109 100.596C434.445 100.116 434.721 99.876 434.937 99.876C435.105 99.876 435.345 100.008 435.657 100.272C435.993 100.536 436.317 100.872 436.629 101.28C436.965 101.688 437.253 102.156 437.493 102.684C437.733 103.188 437.853 103.692 437.853 104.196C437.853 105.228 437.337 106.224 436.305 107.184C435.273 108.12 433.929 109.164 432.273 110.316C433.305 111.852 434.181 113.16 434.901 114.24C435.621 115.32 436.209 116.22 436.665 116.94C437.145 117.636 437.493 118.176 437.709 118.56C437.925 118.944 438.033 119.208 438.033 119.352C438.033 119.52 437.937 119.676 437.745 119.82C437.553 119.94 437.289 120 436.953 120H434.505C433.257 120 432.237 119.7 431.445 119.1C430.653 118.5 429.981 117.624 429.429 116.472L427.989 113.592C427.077 114.624 426.321 115.56 425.721 116.4C425.145 117.24 424.665 117.96 424.281 118.56C423.897 119.136 423.585 119.592 423.345 119.928C423.105 120.24 422.865 120.396 422.625 120.396C422.457 120.396 422.193 120.312 421.833 120.144C421.497 119.976 421.149 119.736 420.789 119.424C420.429 119.088 420.117 118.692 419.853 118.236C419.589 117.756 419.457 117.204 419.457 116.58C419.457 116.052 419.577 115.548 419.817 115.068C420.057 114.564 420.429 114.072 420.933 113.592C421.461 113.088 422.121 112.56 422.913 112.008C423.705 111.456 424.665 110.844 425.793 110.172C425.001 108.756 424.269 107.52 423.597 106.464C422.949 105.408 422.385 104.52 421.905 103.8C421.449 103.056 421.089 102.456 420.825 102C420.561 101.544 420.429 101.196 420.429 100.956C420.429 100.716 420.585 100.536 420.897 100.416C421.233 100.272 421.833 100.2 422.697 100.2C423.633 100.2 424.413 100.284 425.037 100.452C425.661 100.596 426.189 100.812 426.621 101.1C427.053 101.388 427.401 101.736 427.665 102.144C427.953 102.552 428.229 103.008 428.493 103.512L430.149 106.716ZM452.961 99.84C455.217 99.84 456.909 100.536 458.037 101.928C459.189 103.32 459.765 105.516 459.765 108.516C459.765 110.388 459.549 112.056 459.117 113.52C458.685 114.984 458.085 116.232 457.317 117.264C456.549 118.272 455.649 119.04 454.617 119.568C453.585 120.096 452.469 120.36 451.269 120.36C449.997 120.36 449.001 120.084 448.281 119.532C447.561 118.98 446.997 118.2 446.589 117.192C446.517 118.056 446.457 118.716 446.409 119.172C446.361 119.628 446.325 119.988 446.301 120.252C446.277 120.54 446.253 120.792 446.229 121.008C446.229 121.224 446.205 121.512 446.157 121.872C446.133 122.232 446.097 122.724 446.049 123.348C446.001 123.972 445.929 124.836 445.833 125.94C445.809 126.228 445.749 126.42 445.653 126.516C445.557 126.612 445.353 126.66 445.041 126.66H443.745C443.001 126.66 442.389 126.576 441.909 126.408C441.453 126.264 441.081 126.048 440.793 125.76C440.529 125.472 440.337 125.112 440.217 124.68C440.121 124.272 440.073 123.792 440.073 123.24C440.073 123 440.109 122.352 440.181 121.296C440.253 120.24 440.337 118.98 440.433 117.516C440.553 116.028 440.673 114.432 440.793 112.728C440.937 111.024 441.069 109.404 441.189 107.868C441.309 106.308 441.405 104.928 441.477 103.728C441.573 102.528 441.645 101.7 441.693 101.244C441.717 100.716 441.777 100.404 441.873 100.308C441.945 100.236 442.137 100.2 442.449 100.2H443.853C445.149 100.2 446.085 100.476 446.661 101.028C447.261 101.556 447.561 102.192 447.561 102.936C448.113 101.832 448.821 101.04 449.685 100.56C450.573 100.08 451.665 99.84 452.961 99.84ZM450.333 104.628C449.109 104.628 448.209 105.156 447.633 106.212C447.057 107.268 446.769 108.708 446.769 110.532C446.769 111.156 446.805 111.768 446.877 112.368C446.973 112.968 447.129 113.508 447.345 113.988C447.561 114.468 447.849 114.852 448.209 115.14C448.593 115.428 449.073 115.572 449.649 115.572C450.681 115.572 451.545 115.068 452.241 114.06C452.937 113.052 453.285 111.468 453.285 109.308C453.285 108.708 453.237 108.132 453.141 107.58C453.069 107.004 452.925 106.5 452.709 106.068C452.493 105.636 452.193 105.288 451.809 105.024C451.425 104.76 450.933 104.628 450.333 104.628ZM466.724 120.324C465.236 120.324 464.168 119.928 463.52 119.136C462.872 118.344 462.548 117.036 462.548 115.212C462.548 114.924 462.56 114.564 462.584 114.132C462.632 113.7 462.68 113.148 462.728 112.476C462.8 111.78 462.884 110.928 462.98 109.92C463.076 108.912 463.172 107.688 463.268 106.248C463.388 104.808 463.508 103.116 463.628 101.172C463.772 99.228 463.916 96.972 464.06 94.404C464.084 93.876 464.144 93.564 464.24 93.468C464.312 93.396 464.504 93.36 464.816 93.36H466.22C466.94 93.36 467.54 93.444 468.02 93.612C468.5 93.78 468.884 94.008 469.172 94.296C469.46 94.584 469.664 94.92 469.784 95.304C469.904 95.664 469.964 96.048 469.964 96.456C469.964 96.936 469.928 97.632 469.856 98.544C469.808 99.432 469.736 100.44 469.64 101.568C469.544 102.696 469.448 103.872 469.352 105.096C469.256 106.32 469.16 107.496 469.064 108.624C468.968 109.728 468.884 110.724 468.812 111.612C468.764 112.5 468.74 113.172 468.74 113.628C468.74 114.252 468.848 114.696 469.064 114.96C469.304 115.224 469.556 115.416 469.82 115.536C470.084 115.632 470.324 115.704 470.54 115.752C470.78 115.776 470.9 115.848 470.9 115.968C470.9 116.496 470.84 117.024 470.72 117.552C470.6 118.056 470.384 118.524 470.072 118.956C469.76 119.364 469.328 119.7 468.776 119.964C468.248 120.204 467.564 120.324 466.724 120.324ZM481.476 120.36C479.82 120.36 478.44 120.132 477.336 119.676C476.256 119.196 475.392 118.548 474.744 117.732C474.096 116.916 473.64 115.968 473.376 114.888C473.112 113.784 472.98 112.608 472.98 111.36C472.98 109.92 473.148 108.516 473.484 107.148C473.844 105.756 474.444 104.52 475.284 103.44C476.124 102.36 477.228 101.496 478.596 100.848C479.988 100.176 481.716 99.84 483.78 99.84C486.804 99.84 488.964 100.584 490.26 102.072C491.58 103.536 492.24 105.6 492.24 108.264C492.24 109.008 492.18 109.836 492.06 110.748C491.964 111.636 491.76 112.524 491.448 113.412C491.16 114.3 490.752 115.164 490.224 116.004C489.72 116.844 489.072 117.588 488.28 118.236C487.488 118.884 486.528 119.4 485.4 119.784C484.296 120.168 482.988 120.36 481.476 120.36ZM483.168 104.628C482.256 104.628 481.524 104.868 480.972 105.348C480.444 105.804 480.036 106.368 479.748 107.04C479.484 107.688 479.304 108.384 479.208 109.128C479.136 109.848 479.1 110.46 479.1 110.964C479.1 112.548 479.352 113.712 479.856 114.456C480.36 115.2 481.08 115.572 482.016 115.572C482.856 115.572 483.54 115.308 484.068 114.78C484.62 114.252 485.04 113.616 485.328 112.872C485.64 112.128 485.844 111.348 485.94 110.532C486.06 109.716 486.12 109.032 486.12 108.48C486.12 107.28 485.892 106.344 485.436 105.672C485.004 104.976 484.248 104.628 483.168 104.628ZM501.515 120.36C500.579 120.36 499.679 120.192 498.815 119.856C497.975 119.52 497.231 118.992 496.583 118.272C495.959 117.552 495.455 116.64 495.071 115.536C494.711 114.432 494.531 113.1 494.531 111.54C494.531 110.844 494.579 110.076 494.675 109.236C494.771 108.372 494.939 107.508 495.179 106.644C495.419 105.78 495.755 104.94 496.187 104.124C496.619 103.308 497.159 102.588 497.807 101.964C498.479 101.316 499.271 100.8 500.183 100.416C501.119 100.032 502.211 99.84 503.459 99.84C504.659 99.84 505.619 100.056 506.339 100.488C507.083 100.896 507.551 101.616 507.743 102.648C507.791 101.712 507.839 100.896 507.887 100.2C507.935 99.504 507.971 98.856 507.995 98.256C508.043 97.656 508.091 97.056 508.139 96.456C508.187 95.856 508.235 95.172 508.283 94.404C508.307 93.876 508.367 93.564 508.463 93.468C508.511 93.42 508.571 93.396 508.643 93.396C508.715 93.372 508.847 93.36 509.039 93.36H510.443C511.163 93.36 511.763 93.444 512.243 93.612C512.723 93.78 513.107 94.008 513.395 94.296C513.683 94.584 513.887 94.92 514.007 95.304C514.127 95.664 514.187 96.048 514.187 96.456C514.187 96.456 514.163 96.756 514.115 97.356C514.067 97.956 514.007 98.76 513.935 99.768C513.863 100.752 513.779 101.88 513.683 103.152C513.587 104.424 513.491 105.744 513.395 107.112C513.299 108.456 513.203 109.8 513.107 111.144C513.011 112.464 512.915 113.688 512.819 114.816C512.723 115.92 512.639 116.88 512.567 117.696C512.519 118.488 512.483 119.016 512.459 119.28C512.411 119.568 512.351 119.76 512.279 119.856C512.207 119.952 512.003 120 511.667 120H510.371C509.867 120 509.387 119.964 508.931 119.892C508.499 119.796 508.115 119.652 507.779 119.46C507.467 119.244 507.215 118.968 507.023 118.632C506.855 118.272 506.771 117.816 506.771 117.264C506.339 118.176 505.679 118.92 504.791 119.496C503.927 120.072 502.835 120.36 501.515 120.36ZM504.647 104.628C503.423 104.628 502.511 105.168 501.911 106.248C501.335 107.304 501.047 108.732 501.047 110.532C501.047 111.156 501.083 111.768 501.155 112.368C501.251 112.968 501.407 113.508 501.623 113.988C501.839 114.468 502.127 114.852 502.487 115.14C502.871 115.428 503.351 115.572 503.927 115.572C504.959 115.572 505.823 115.068 506.519 114.06C507.215 113.052 507.563 111.468 507.563 109.308C507.563 108.708 507.527 108.132 507.455 107.58C507.383 107.004 507.239 106.5 507.023 106.068C506.807 105.636 506.507 105.288 506.123 105.024C505.739 104.76 505.247 104.628 504.647 104.628ZM525.146 120.36C524.09 120.36 523.034 120.228 521.978 119.964C520.946 119.7 520.01 119.244 519.17 118.596C518.354 117.948 517.682 117.084 517.154 116.004C516.626 114.924 516.362 113.568 516.362 111.936C516.362 111.336 516.41 110.616 516.506 109.776C516.602 108.936 516.782 108.072 517.046 107.184C517.334 106.296 517.718 105.42 518.198 104.556C518.702 103.668 519.35 102.876 520.142 102.18C520.934 101.484 521.894 100.92 523.022 100.488C524.15 100.056 525.494 99.84 527.054 99.84C528.302 99.84 529.358 99.984 530.222 100.272C531.086 100.56 531.782 100.956 532.31 101.46C532.838 101.94 533.222 102.504 533.462 103.152C533.702 103.8 533.822 104.496 533.822 105.24C533.822 106.344 533.594 107.28 533.138 108.048C532.706 108.816 532.13 109.464 531.41 109.992C530.714 110.496 529.934 110.892 529.07 111.18C528.206 111.468 527.354 111.696 526.514 111.864C525.674 112.008 524.894 112.104 524.174 112.152C523.478 112.176 522.938 112.188 522.554 112.188C522.554 112.644 522.614 113.1 522.734 113.556C522.878 113.988 523.082 114.372 523.346 114.708C523.61 115.044 523.958 115.32 524.39 115.536C524.822 115.752 525.35 115.86 525.974 115.86C526.598 115.86 527.078 115.764 527.414 115.572C527.774 115.356 528.062 115.128 528.278 114.888C528.494 114.624 528.674 114.396 528.818 114.204C528.986 113.988 529.202 113.88 529.466 113.88C529.586 113.88 529.79 113.916 530.078 113.988C530.39 114.036 530.702 114.156 531.014 114.348C531.326 114.54 531.602 114.804 531.842 115.14C532.082 115.476 532.202 115.908 532.202 116.436C532.202 117.132 531.986 117.732 531.554 118.236C531.122 118.74 530.558 119.148 529.862 119.46C529.19 119.772 528.434 120 527.594 120.144C526.754 120.288 525.938 120.36 525.146 120.36ZM525.83 104.628C525.302 104.628 524.846 104.784 524.462 105.096C524.102 105.384 523.79 105.756 523.526 106.212C523.286 106.668 523.094 107.172 522.95 107.724C522.83 108.276 522.734 108.804 522.662 109.308C524.15 109.284 525.35 109.032 526.262 108.552C527.198 108.072 527.666 107.388 527.666 106.5C527.666 106.02 527.51 105.588 527.198 105.204C526.91 104.82 526.454 104.628 525.83 104.628ZM538.834 113.592C539.842 113.592 540.562 113.844 540.994 114.348C541.426 114.828 541.642 115.512 541.642 116.4C541.642 116.76 541.594 117.18 541.498 117.66C541.402 118.116 541.222 118.548 540.958 118.956C540.718 119.34 540.37 119.676 539.914 119.964C539.458 120.228 538.858 120.36 538.114 120.36C537.01 120.36 536.266 120.084 535.882 119.532C535.498 118.956 535.306 118.248 535.306 117.408C535.306 116.928 535.366 116.46 535.486 116.004C535.606 115.548 535.798 115.14 536.062 114.78C536.326 114.42 536.686 114.132 537.142 113.916C537.598 113.7 538.162 113.592 538.834 113.592Z" fill="#3E85B9"/>
<path d="M76.8216 36.0117C76.1713 39.2628 73.1912 50.3706 77.0383 57.6314C80.8854 64.8921 84.6242 66.6802 84.6242 66.6802C84.6242 66.6802 99.6334 77.1379 98.0078 96.1026C94.8109 108.132 94.3232 108.944 90.747 112.466C87.1167 115.988 77.8511 120.432 66.7974 120.648C55.7437 120.919 39.5966 117.668 34.7742 106.018C29.9518 94.3686 33.4738 80.6057 37.4834 75.3498C41.4931 70.0939 49.3499 64.2961 50.6503 62.7247C51.9508 61.1534 55.0935 53.6759 55.0393 50.4248C54.9851 47.1737 53.1428 35.8491 53.1428 35.8491C53.1428 35.8491 59.9159 37.3121 63.4379 37.3663C66.9599 37.5288 76.8216 36.0117 76.8216 36.0117Z" fill="#A5D3E8"/>
<path d="M76.3883 17.1553C78.8266 18.239 82.9988 20.7857 82.4028 26.4209C81.8068 32.0561 81.7526 36.3367 73.2456 36.8785C64.6844 37.4204 54.4977 38.3957 50.9215 34.8737C47.3453 31.4059 46.2074 25.1746 48.3748 22.1403C50.5422 19.1059 53.3598 17.2636 53.3598 17.2636L76.3883 17.1553Z" fill="#A5D3E8"/>
<path d="M73.2455 36.8788C81.8067 36.337 81.8066 32.1106 82.4027 26.4212C82.511 25.5 82.4569 24.6331 82.3485 23.8203C78.0137 25.2833 74.1124 28.1551 71.1322 31.5687C71.0239 33.4652 69.7776 35.0907 68.2605 36.1744C67.6102 36.6079 66.96 36.9872 66.2556 37.2581C68.5856 37.2039 70.9697 36.9872 73.2455 36.8788Z" fill="#6AA9B7"/>
<path d="M76.3882 17.1553C78.7181 17.5888 82.5652 22.1403 82.4569 24.5245C82.3485 26.9628 78.5556 32.9773 68.2063 33.4649C57.857 33.9526 54.1724 31.4601 52.7094 30.8099C51.2465 30.1055 45.4487 27.8297 49.0791 21.5985C52.7094 15.3672 53.7931 17.2637 53.7931 17.2637L76.3882 17.1553Z" fill="#CEE7F1"/>
<path d="M63.7088 65.9759C67.0682 65.9217 78.6096 66.9512 81.8607 69.3354C85.1117 71.7195 89.9884 77.8966 91.8307 85.0489C93.6729 92.2013 95.6778 103.526 88.2545 109.161C80.8312 114.796 70.2651 116.91 64.7383 116.476C59.2114 116.043 43.2811 115.772 38.3503 104.501C33.4195 93.2308 37.2666 82.2855 40.1926 78.2759C43.1186 74.2662 47.3992 66.1926 63.7088 65.9759Z" fill="#B54E60"/>
<path d="M91.8307 85.0495C90.9096 81.6359 89.3382 78.439 87.5501 75.7297C83.107 77.5178 78.2845 79.5227 78.2845 79.5227C81.3731 88.0297 88.9589 104.773 49.4583 113.334C49.6208 113.605 49.7834 113.876 49.8917 114.093C55.6353 116.043 61.704 116.26 64.7384 116.477C70.2652 116.91 80.8312 114.797 88.2546 109.162C95.6779 103.527 93.7272 92.1477 91.8307 85.0495Z" fill="#DB657A"/>
<path d="M81.0477 68.8476C78.9886 68.3599 68.7477 65.4339 64.7922 65.759C60.8367 66.0841 51.6254 66.8427 48.4826 69.3352L46.0985 71.1233C43.4434 74.266 42.3597 76.9753 46.0985 80.0096C49.8372 83.0982 56.6103 85.8074 64.7922 85.0488C72.9741 84.2902 83.8653 83.9651 86.2494 79.0343C88.6335 74.1035 83.1067 69.3352 81.0477 68.8476Z" fill="#EEBAC6"/>
<path d="M80.8851 69.1187C80.6684 68.9562 80.5058 68.7936 80.2891 68.6311C77.2006 67.8183 68.3684 65.4342 64.7922 65.7593C60.8367 66.0844 51.6254 66.843 48.4826 69.3355L46.0985 71.1235C43.4434 74.2663 42.3597 76.9755 46.0985 80.0099C46.6945 80.4975 47.3448 80.931 48.0492 81.4187C46.9113 79.4138 46.9655 76.813 47.9408 74.7539C48.9703 72.5865 50.8126 70.9068 52.9258 69.7689C55.039 68.631 57.4231 68.0892 59.7531 67.7099C66.7971 66.5179 74.112 67.0055 80.8851 69.1187Z" fill="#F2DDE8"/>
<path d="M55.5523 71.039C55.5552 70.4105 54.1991 69.8947 52.5233 69.8869C50.8475 69.879 49.4865 70.3821 49.4836 71.0105C49.4807 71.639 50.8368 72.1548 52.5126 72.1627C54.1884 72.1705 55.5494 71.6674 55.5523 71.039Z" fill="#F2DDE8"/>
<path d="M91.8308 85.0492C90.9097 81.5272 89.2299 78.1677 87.3876 75.4585L86.4123 78.4928L82.4569 81.9607C84.4075 86.0245 93.5105 110.787 58.8323 115.555C59.4283 115.772 59.9702 115.989 60.5662 116.151C62.2459 116.314 63.7089 116.368 64.7926 116.476C70.3194 116.91 80.8855 114.797 88.3088 109.161C95.7321 103.526 93.7273 92.1474 91.8308 85.0492Z" fill="#AB3C50"/>
<path d="M53.522 36.391L54.0096 38.7751C61.4871 45.8733 70.1567 39.5879 74.7082 48.4742L75.0333 48.3658C75.0333 43.0557 76.3338 38.0165 76.7672 35.9575C76.7672 35.9575 66.6889 37.854 63.3836 37.3663C61.8664 37.3121 59.8074 37.0412 57.911 36.7161C55.581 36.5535 53.522 36.391 53.522 36.391Z" fill="#6AA9B7"/>
<path d="M98.6581 90.6845C98.3871 87.4335 97.6286 84.3991 96.4365 81.4189C95.1903 78.3304 93.8356 75.2961 91.885 72.641C89.9343 69.986 87.5502 67.7102 84.7868 65.8679C84.1366 65.4345 83.4864 65.0552 82.8362 64.6759C80.6146 62.4543 78.8265 59.6909 77.526 56.9274C77.526 56.8733 77.4718 56.8733 77.4718 56.8191C77.2551 56.3856 77.0384 55.8979 76.8758 55.4645C75.6296 52.4843 75.9005 49.0707 76.1172 45.9279C76.2256 44.3024 76.3882 42.6769 76.6049 41.1055C76.7675 39.6967 77.2009 38.2337 77.2551 36.8249C77.6886 36.6624 78.1221 36.554 78.5014 36.3372C81.2106 35.1994 82.5652 32.9778 83.2696 30.2144C84.0282 27.3968 84.0824 24.8501 82.6736 22.3576C82.2401 21.2197 81.4815 20.136 80.5604 19.2691C79.6392 18.1854 78.5555 17.2642 77.2551 17.1017C77.0384 16.9933 76.7675 16.8849 76.4965 16.8307C76.0089 16.6682 75.7379 17.3726 76.1714 17.6435C79.7476 19.54 83.5947 23.7122 80.7229 27.8844C79.3683 29.8893 76.4423 30.8646 74.2749 31.6774C71.8366 32.5985 69.3983 33.1403 66.8517 33.4113C66.4724 33.4655 66.4182 34.0615 66.8517 34.0615C69.9944 34.1157 73.1371 33.1403 76.0631 32.0025C78.3388 31.0813 81.2106 30.3227 82.4026 27.9928C82.2401 28.8598 81.9692 29.7267 81.6441 30.5937C80.8313 32.8152 79.5309 34.1157 77.5802 34.9826C77.0926 35.1452 76.6049 35.3077 76.1172 35.5245C74.6001 35.958 73.0287 36.3372 71.4574 36.6624C69.7776 36.8791 68.0979 36.9875 66.4724 36.9875C63.1129 37.0416 59.8076 36.554 56.5023 36.1205C55.6896 35.9038 54.931 35.687 54.1182 35.4703C51.409 34.6575 49.6751 33.3029 48.6998 30.5937C48.3747 29.7267 48.1037 28.8056 47.9412 27.9386C49.1332 30.1602 51.8425 30.9188 54.064 31.8399C57.0442 33.0862 60.2411 34.0615 63.4922 34.0073C63.9257 34.0073 63.8715 33.4113 63.4922 33.3571C60.9997 33.0862 58.6698 32.5985 56.2856 31.7315C54.0641 30.9188 50.9755 29.9434 49.5667 27.8302C46.7491 23.658 50.542 19.4858 54.1182 17.5893C54.5517 17.3726 54.2266 16.614 53.7931 16.7765C53.5222 16.8849 53.3055 16.9391 53.0345 17.0475C51.7883 17.21 50.7046 18.1312 49.7835 19.2149C48.8623 20.136 48.1037 21.1655 47.6161 22.3034C46.2073 24.8501 46.3156 27.3426 47.02 30.1602C47.7244 32.9236 49.079 35.1452 51.7883 36.2831C52.1676 36.4456 52.5469 36.6082 52.9262 36.7165C52.9804 38.017 53.3596 39.3174 53.5222 40.5637C53.7389 42.2434 53.9015 43.9231 54.0099 45.6028C54.2266 48.7997 54.5517 52.3759 53.2513 55.4103C53.0345 55.8437 52.872 56.3314 52.6552 56.8191C52.6552 56.8191 52.6552 56.8191 52.6552 56.8733C51.3548 59.6367 49.5125 62.4543 47.2909 64.6759C46.5865 65.1093 45.828 65.4886 45.1235 65.9763C42.3601 67.8728 39.9218 70.2569 37.9712 72.9661C33.6906 78.9806 31.2523 86.7291 31.3606 94.044C31.469 100.221 33.0404 106.507 37.321 111.166C41.0597 115.23 46.1531 117.831 51.3548 119.457C56.394 121.028 61.9208 121.895 67.2309 121.191C72.1617 121.407 77.1468 120.324 81.7525 118.59C87.4419 116.422 92.6436 112.954 95.6237 107.482C98.333 102.443 99.1457 96.3739 98.6581 90.6845ZM95.6237 103.364C93.6189 109.162 89.3925 113.388 83.8656 115.989C77.2551 119.132 70.0486 119.999 62.7878 119.836C62.6794 119.836 62.6252 119.89 62.5169 119.944C54.1182 119.348 45.557 116.964 39.4342 111.112C29.4642 101.576 32.0109 84.1824 39.38 73.8873C41.2223 71.3406 43.498 69.4441 45.8821 67.6018C46.7491 67.06 47.5619 66.4098 48.3205 65.7596C49.5125 64.8384 50.7046 63.8089 51.5173 62.4543C51.8425 61.9666 52.0592 61.4248 52.2759 60.9371C53.2513 59.4199 54.064 57.7944 54.7143 56.223C56.0147 53.1887 55.8521 49.7751 55.6896 46.524C55.5812 44.7359 55.4187 42.9478 55.0936 41.2139C54.8768 39.9676 54.6601 38.4505 54.2266 37.2042C56.3398 37.7461 58.453 37.9086 60.6204 37.8002C62.6252 38.0711 64.6842 38.1795 66.6349 38.1253C67.9895 38.0712 69.2899 37.9628 70.5904 37.8002C72.3785 37.8002 74.1124 37.6377 75.8463 37.2042C75.467 38.3963 75.2503 39.7509 75.0335 40.943C74.7084 42.6769 74.4917 44.465 74.3833 46.253C74.1666 49.5583 74.004 53.1345 75.3045 56.223C76.0089 57.8486 76.8758 59.5283 77.8511 61.0997C78.393 62.2917 79.0974 63.4296 80.1269 64.4049C80.6688 64.9468 81.2648 65.3803 81.8608 65.8679C82.7278 66.6265 83.5947 67.2767 84.57 67.8728C85.437 68.523 86.304 69.1732 87.0626 69.8776C91.6683 74.1582 94.6484 80.2269 96.1656 86.2956C97.6828 91.7682 97.466 97.9995 95.6237 103.364Z" fill="#34587F"/>
<path d="M86.9541 73.0201C85.4911 70.2567 82.1858 68.4686 79.314 67.7642C74.9793 66.6805 70.2652 65.055 65.7679 65.3801C64.4674 65.3259 63.167 65.3801 61.9207 65.4343C57.8027 65.7052 53.3595 65.9219 49.8375 68.1435C48.0494 69.2814 46.0446 70.3651 44.7441 71.9364C44.6358 71.9906 44.5816 71.9906 44.4732 72.099C38.1336 77.5175 35.0993 86.5663 35.2076 94.694C35.2618 99.4623 37.1583 104.231 39.7592 108.24C42.1975 112.033 46.3697 113.821 50.5419 115.23C59.374 118.21 69.1815 118.264 78.122 115.501C82.24 114.255 87.225 112.467 89.8801 108.945C92.5893 105.314 93.9981 100.492 94.269 95.9945C94.5941 90.3593 92.7519 84.7782 90.6928 79.5765C89.7175 77.1924 88.5254 74.9166 86.9541 73.0201ZM89.8801 105.585C88.688 107.59 87.3334 109.161 85.3285 110.353C83.3779 111.437 81.3189 112.358 79.2057 113.117C71.2405 115.934 62.5167 116.368 54.3348 114.363C50.4335 113.442 45.6653 112.033 42.7393 109.107C41.3305 107.698 40.4635 105.91 39.5966 104.176C38.5671 102.009 37.5918 99.8416 37.1583 97.4575C36.3997 92.9601 37.2125 88.1377 38.6213 83.8029C39.6508 80.6602 41.2221 77.68 43.3353 75.1875C43.3353 75.3501 43.3353 75.5126 43.3353 75.6752C43.2812 79.414 46.6406 81.7439 49.7833 82.9901C50.1626 83.1527 50.3794 82.5567 50.0543 82.3399C47.2367 80.606 43.0644 77.7342 45.0151 73.8871C45.1776 73.562 45.3402 73.2911 45.5569 73.0201C45.6111 72.966 45.6111 72.966 45.6111 72.9118C46.4239 71.9365 47.5618 71.2321 48.6454 70.5277C50.0543 69.6065 51.4631 68.577 53.0886 68.0352C54.7683 67.4933 56.5564 67.3849 58.2903 67.1682C60.0242 66.9515 61.8123 66.7347 63.5463 66.6805C65.4969 66.6263 67.4476 66.7347 69.3982 67.0056C71.0779 67.2224 72.7035 67.8184 74.3832 67.8184C74.4374 67.8184 74.4916 67.8184 74.5458 67.7642C76.1171 68.0893 77.6885 68.4686 79.1515 68.9563C81.4814 69.7149 83.7572 71.0153 85.166 73.0201C86.7373 75.1875 86.2497 77.8426 84.4616 79.7391C81.2105 83.2069 74.9251 83.3694 70.5903 83.8029C67.9352 84.0738 65.2802 84.2906 62.6251 84.3448C60.0242 84.3448 57.4776 83.8571 54.9309 83.8571C54.5516 83.8571 54.3349 84.4531 54.7141 84.6699C56.719 85.5368 59.0489 85.6452 61.2163 85.6994C63.7088 85.7536 66.1471 85.591 68.6396 85.3743C73.0828 84.995 78.0136 84.8324 82.1858 83.0443C84.9492 81.8523 87.4959 79.3056 87.6585 76.1629C88.2545 77.2466 88.7964 78.3844 89.2298 79.5765C90.8554 83.8029 92.4809 88.3002 92.7519 92.8518C93.077 97.2407 92.1016 101.792 89.8801 105.585Z" fill="#7D3351"/>
<path d="M60.2241 60.7369C61.3566 58.0968 61.0484 55.4305 59.5359 54.7817C58.0233 54.1329 55.879 55.7472 54.7466 58.3873C53.6141 61.0275 53.9222 63.6937 55.4348 64.3425C56.9474 64.9913 59.0916 63.377 60.2241 60.7369Z" fill="#E1EDF1"/>
<path d="M64.3555 49.4427C64.4313 47.8584 63.5719 46.53 62.436 46.4756C61.3001 46.4213 60.3178 47.6616 60.242 49.2459C60.1662 50.8302 61.0256 52.1586 62.1615 52.2129C63.2974 52.2672 64.2797 51.027 64.3555 49.4427Z" fill="#E1EDF1"/>
<path d="M77.0384 11.7917C77.1468 14.501 74.6001 24.4168 74.275 25.1212C73.9499 25.8256 69.8318 28.6974 64.4675 28.4265C59.1033 28.1555 55.8522 26.8551 54.7685 24.7961C53.6848 22.7371 53.5222 11.7917 53.5222 11.7917H77.0384Z" fill="#C08C34"/>
<path d="M66.9601 15.6385C66.5808 17.8059 62.5711 23.116 54.8227 20.5152C54.335 23.0077 54.8227 24.7958 54.8227 24.7958C54.8227 24.7958 64.9011 27.5592 65.2262 27.2882C65.5513 27.0173 71.8909 20.6235 71.8909 20.1359C71.8909 19.6482 71.2407 15.0967 71.2407 15.0967L66.9601 15.6385Z" fill="#A8762A"/>
<path d="M65.0637 15.6927C71.6772 15.6927 77.0385 13.3153 77.0385 10.3826C77.0385 7.44993 71.6772 5.07251 65.0637 5.07251C58.4502 5.07251 53.0889 7.44993 53.0889 10.3826C53.0889 13.3153 58.4502 15.6927 65.0637 15.6927Z" fill="#EDBE50"/>
<path d="M75.5753 7.61889C75.4127 7.5647 75.3044 7.51051 75.1418 7.51051C71.674 6.53518 63.167 5.23476 59.3741 7.61889C55.3644 10.1656 55.5811 13.0915 55.6353 13.6334C54.1723 12.5497 52.9261 10.3281 53.3596 9.24443C53.793 8.16073 59.1031 3.9885 66.2013 4.85546C73.2995 5.7766 78.718 8.54003 75.5753 7.61889Z" fill="#F3E6C9"/>
<path d="M69.5066 15.5302C69.94 18.9438 65.226 29.2931 54.8225 23.4954C54.8225 24.7958 55.0392 25.3377 55.0392 25.3377C55.0392 25.3377 57.2608 27.8843 61.4331 28.1011C65.6053 28.3178 70.807 29.3473 74.329 25.1209C76.0629 18.7813 76.4964 12.55 76.4964 12.55C76.4964 12.55 74.2748 14.3381 73.2453 14.5549C72.1616 14.8258 69.5066 15.5302 69.5066 15.5302Z" fill="#845B24"/>
<path d="M64.95 8.85959C66.1115 8.74553 67.0032 8.14607 66.9418 7.52066C66.8804 6.89524 65.8891 6.48069 64.7276 6.59475C63.5661 6.70881 62.6743 7.30827 62.7357 7.93369C62.7971 8.55911 63.7885 8.97364 64.95 8.85959Z" fill="#F3E6C9"/>
<path d="M64.8418 8.85983C66.0033 8.74577 66.8951 8.14632 66.8337 7.5209C66.7723 6.89548 65.7809 6.48094 64.6194 6.595C63.4579 6.70905 62.5661 7.30852 62.6276 7.93393C62.689 8.55935 63.6803 8.97389 64.8418 8.85983Z" fill="#F3E6C9"/>
<path d="M68.4801 9.51233C69.1949 9.44214 69.7459 9.09552 69.7108 8.73813C69.6757 8.38075 69.0678 8.14794 68.353 8.21813C67.6382 8.28832 67.0873 8.63493 67.1224 8.99231C67.1575 9.34969 67.7653 9.58251 68.4801 9.51233Z" fill="#F3E6C9"/>
<path d="M78.1221 9.6239C77.4719 7.40233 75.0335 6.21027 73.0287 5.45168C70.7529 4.58472 68.3146 4.25962 65.8763 4.36798C63.5464 4.20543 61.2164 4.25961 58.9407 4.80146C56.6107 5.3433 54.064 6.26445 53.0887 8.64858C52.6552 9.84064 52.6552 10.816 52.9262 11.6829C52.9804 13.5794 53.1971 15.4759 53.3596 17.2639C53.468 18.6186 53.5764 19.9732 53.7389 21.3278C53.8473 22.3573 53.8473 23.4952 54.1724 24.5247C54.1724 24.5789 54.1182 24.6873 54.1724 24.7414C54.8226 26.4754 56.6649 27.3423 58.3446 27.8842C60.512 28.6427 62.842 28.9679 65.1177 28.9679C67.6644 28.9137 72.2159 28.426 74.1666 26.0961C74.2208 26.0961 74.3291 26.0961 74.3833 26.0419C75.4128 25.6084 75.5212 24.4705 75.7921 23.4952C76.2256 21.9238 76.6049 20.2983 76.9842 18.6728C77.4177 16.6137 77.6886 14.6089 77.7428 12.6041C78.2304 11.7371 78.4472 10.7076 78.1221 9.6239ZM75.2503 17.6974C74.9794 19.052 74.6543 20.4067 74.3291 21.7071C74.0582 22.6824 73.4622 23.9287 73.408 25.0124C72.5952 25.9877 71.6199 26.6379 70.3195 27.0714C68.5314 27.6674 66.6349 27.8842 64.7926 27.8842C61.5957 27.8842 57.6402 27.2881 55.3103 24.8498C55.4728 23.6577 55.2019 22.4657 55.0936 21.2736C54.931 19.8106 54.7684 18.3476 54.6059 16.8847C54.4975 15.7468 54.3892 14.6089 54.2808 13.4168C56.5565 15.3133 60.7288 16.0177 63.0587 16.1261C63.438 16.1261 63.5464 15.53 63.1671 15.4759C60.9997 15.0424 58.6697 14.7715 56.6107 13.7961C54.1724 12.6041 52.872 9.84064 55.3103 7.88999C56.9358 6.58956 59.2116 6.15608 61.2164 5.88515C62.7878 5.66841 64.4133 5.50586 65.9847 5.39749C67.556 5.45168 69.1274 5.7226 70.6446 6.15608C72.3785 6.69792 75.1961 7.5107 76.1172 9.24461C77.3635 11.5204 74.3291 13.6878 72.4868 14.2296C70.4278 14.8256 68.2062 14.7715 66.1472 15.1507C65.7679 15.2049 65.8763 15.801 66.2556 15.801C67.7186 15.9093 69.2899 15.6926 70.7529 15.4759C70.8071 15.4759 70.8613 15.4759 70.9155 15.4759C70.6446 17.0472 70.3736 18.6186 70.0485 20.1357C69.9402 20.5692 70.5904 20.786 70.7529 20.2983C71.2406 18.6728 71.6199 16.993 71.7825 15.3133C72.3243 15.2591 72.8662 15.1507 73.3538 15.0966C73.0287 16.2886 72.9203 17.6432 72.7578 18.7811C72.541 20.6776 72.1076 22.5741 72.1618 24.4705C72.1618 24.904 72.7578 24.8498 72.812 24.4705C73.0829 22.5199 73.408 20.6234 73.8957 18.6728C74.1666 17.5349 74.5459 16.1261 74.4917 14.8256C74.6001 14.7714 74.7084 14.7715 74.8168 14.7173C75.1961 14.6089 75.5754 14.4463 75.9005 14.2296C75.6837 15.4759 75.467 16.5595 75.2503 17.6974Z" fill="#513617"/>
</svg>
