<svg width="115" height="31" viewBox="0 0 115 31" fill="none" xmlns="http://www.w3.org/2000/svg">
<path d="M19.3563 16.1408L18.0472 17.462C18.0442 17.465 18.0442 17.4681 18.0412 17.4711L17.9691 17.5438C17.9661 17.5469 17.9631 17.5469 17.9601 17.5499L16.6089 18.9135L16.9872 19.2954L11.4895 24.8408L5.99475 19.2954L11.4895 13.7469L12.3693 14.6347L13.7294 13.2651C13.7324 13.259 13.7414 13.2529 13.7474 13.2469L13.7835 13.2105C13.7895 13.2044 13.7955 13.1984 13.8015 13.1923L15.1166 11.8651L11.4895 8.20142L0.5 19.2954L11.4895 30.3863L22.479 19.2954L19.3563 16.1408Z" fill="#006DFF"/>
<path d="M11.5105 0.38623L0.521027 11.4771L3.62271 14.6074L5.01591 13.2014C5.01891 13.1984 5.01891 13.1953 5.02191 13.1923L5.09398 13.1196C5.09698 13.1165 5.09998 13.1165 5.10298 13.1135L6.36708 11.8377L6.01877 11.4862L11.5105 5.93168L17.0053 11.4802L11.5165 17.0317L10.6308 16.1377L9.27959 17.5105C9.27659 17.5165 9.26758 17.5226 9.26158 17.5287L9.22554 17.565C9.21954 17.5711 9.21353 17.5771 9.20753 17.5832L7.88939 18.9165L11.5105 22.5711L22.5 11.4802L11.5105 0.38623Z" fill="#006DFF"/>
<path d="M38.1551 19.0281H40.0297V10.2842H37.4079L35.2842 15.7377L33.1605 10.2842H30.5517V19.0281H32.4132V12.7357L34.8778 19.0281H35.6905L38.1551 12.7357V19.0281ZM47.8883 19.0281H49.9202L46.5511 10.2842H44.2177L40.8355 19.0281H42.8805L43.4311 17.5205H47.3377L47.8883 19.0281ZM45.3844 11.8967L46.8264 15.9081H43.9293L45.3844 11.8967ZM51.9015 19.0281H53.7761V11.9229H56.3193V10.2842H49.3452V11.9229H51.9015V19.0281ZM59.5315 19.0281H61.4061V11.9229H63.9493V10.2842H56.9752V11.9229H59.5315V19.0281ZM65.1427 19.0281H71.3302V17.4156H67.0042V15.3837H71.2384V13.7844H67.0042V11.8836H71.3302V10.2842H65.1427V19.0281ZM77.7276 19.0281H79.8644L77.898 15.6983C78.8419 15.4755 79.812 14.6496 79.812 13.1027C79.812 11.4772 78.6977 10.2842 76.8755 10.2842H72.7854V19.0281H74.6469V15.895H76.0103L77.7276 19.0281ZM77.9111 13.0896C77.9111 13.8237 77.3474 14.2956 76.6002 14.2956H74.6469V11.8836H76.6002C77.3474 11.8836 77.9111 12.3555 77.9111 13.0896ZM81.2091 19.0281H83.0706V15.895H85.2992C87.1869 15.895 88.2357 14.6234 88.2357 13.1027C88.2357 11.5689 87.2 10.2842 85.2992 10.2842H81.2091V19.0281ZM86.3348 13.0896C86.3348 13.8237 85.7842 14.2956 85.0501 14.2956H83.0706V11.8836H85.0501C85.7842 11.8836 86.3348 12.3686 86.3348 13.0896ZM88.9701 14.6627C88.9701 17.2977 90.8971 19.1854 93.5321 19.1854C96.1802 19.1854 98.1072 17.2977 98.1072 14.6627C98.1072 12.0278 96.1802 10.14 93.5321 10.14C90.8971 10.14 88.9701 12.0278 88.9701 14.6627ZM96.1933 14.6627C96.1933 16.2882 95.1445 17.5336 93.5321 17.5336C91.9197 17.5336 90.884 16.2882 90.884 14.6627C90.884 13.0241 91.9197 11.7918 93.5321 11.7918C95.1445 11.7918 96.1933 13.0241 96.1933 14.6627ZM98.994 14.6627C98.994 17.2977 100.921 19.1854 103.556 19.1854C106.204 19.1854 108.131 17.2977 108.131 14.6627C108.131 12.0278 106.204 10.14 103.556 10.14C100.921 10.14 98.994 12.0278 98.994 14.6627ZM106.217 14.6627C106.217 16.2882 105.168 17.5336 103.556 17.5336C101.944 17.5336 100.908 16.2882 100.908 14.6627C100.908 13.0241 101.944 11.7918 103.556 11.7918C105.168 11.7918 106.217 13.0241 106.217 14.6627ZM109.437 19.0281H114.996V17.3894H111.299V10.2842H109.437V19.0281Z" fill="#006DFF"/>
</svg>
